<svg width="48" height="48" viewBox="0 0 48 48" fill="none" xmlns="http://www.w3.org/2000/svg">
<path d="M23.9922 1.80029C24.2383 1.80029 24.479 1.87597 24.6807 2.01709C27.3329 3.97054 29.773 6.19569 31.9629 8.65479L32.3984 9.1499C37.5212 15.033 40.2002 21.2065 40.2002 27.0005C40.2001 31.2968 38.4931 35.4176 35.4551 38.4556C32.417 41.4935 28.2964 43.1997 24 43.1997C19.7036 43.1997 15.583 41.4935 12.5449 38.4556C9.50693 35.4176 7.79992 31.2968 7.7998 27.0005C7.7998 21.2065 10.4788 15.033 15.6016 9.1499V9.14893C17.8966 6.49386 20.4793 4.10146 23.3027 2.01709L23.3037 2.01807C23.5054 1.87678 23.7459 1.80036 23.9922 1.80029ZM23.8145 4.63916C22.2548 5.86573 18.8584 8.73223 15.8496 12.645C12.844 16.5538 10.2002 21.5402 10.2002 27.0005C10.2043 30.659 11.6592 34.1664 14.2461 36.7534C16.7523 39.2597 20.1227 40.7039 23.6572 40.7954L24 40.8003C27.6587 40.7962 31.1668 39.3405 33.7539 36.7534C36.3408 34.1664 37.7957 30.659 37.7998 27.0005C37.7998 21.5382 35.1562 16.5515 32.1504 12.6431C29.1416 8.73075 25.7451 5.8657 24.1855 4.63916L24 4.49365L23.8145 4.63916ZM32.3066 27.521C32.5663 27.3367 32.8892 27.2636 33.2031 27.3169C33.5168 27.3702 33.7963 27.5457 33.9805 27.8052C34.1569 28.0537 34.2311 28.3596 34.1904 28.6606L34.1836 28.6987C33.8054 30.8108 32.7899 32.7569 31.2725 34.2739C29.7557 35.7904 27.8104 36.805 25.6992 37.1831C25.633 37.1936 25.5661 37.1983 25.499 37.1987C25.1984 37.1984 24.9087 37.0869 24.6875 36.8833C24.466 36.6794 24.3296 36.3991 24.3047 36.0991C24.2798 35.7992 24.368 35.5007 24.5527 35.2632C24.7374 35.0257 25.005 34.8667 25.3018 34.8169H25.3027C28.5355 34.2724 31.2701 31.5372 31.8184 28.2993C31.8717 27.9855 32.0471 27.7053 32.3066 27.521Z" fill="#3B5941" stroke="white" stroke-width="0.6"/>
</svg>
