<svg width="48" height="48" viewBox="0 0 48 48" fill="none" xmlns="http://www.w3.org/2000/svg">
<path d="M29.7958 1.85034C30.0468 1.80657 30.3052 1.8457 30.5321 1.96167C30.7591 2.07774 30.943 2.26465 31.0546 2.4939C31.1658 2.72269 31.1997 2.98147 31.1512 3.2312L28.4022 16.9802L28.3485 17.2507L28.6073 17.3484L39.4091 21.4001H39.41C39.5914 21.4675 39.7536 21.5794 39.8817 21.7244C39.9777 21.8331 40.0523 21.9583 40.1024 22.0935L40.1444 22.2312C40.1876 22.4182 40.1841 22.6131 40.1346 22.7986C40.0974 22.938 40.0343 23.0691 39.9501 23.1853L39.8593 23.2966L18.8593 45.7957C18.6849 45.9817 18.4551 46.1064 18.204 46.1501C17.953 46.1939 17.6945 46.1548 17.4677 46.0388C17.2407 45.9228 17.0577 45.7358 16.9462 45.5066C16.8348 45.2778 16.8002 45.0191 16.8485 44.7693L19.5897 31.0349L19.6444 30.7644L19.3856 30.6667L8.57996 26.615H8.57898C8.39736 26.547 8.23516 26.4346 8.1073 26.2888C7.97959 26.143 7.8902 25.9679 7.84656 25.7791C7.80295 25.5901 7.80636 25.3929 7.8573 25.2058C7.90834 25.0187 8.00505 24.8466 8.13855 24.7058L8.1405 24.7039L29.1405 2.20386C29.3148 2.01801 29.5448 1.89412 29.7958 1.85034ZM27.2538 7.66284L11.3876 24.6619L11.0555 25.0164L11.5106 25.1873L21.4169 28.908V28.9089C21.677 29.0078 21.8937 29.1956 22.0282 29.4392C22.1458 29.6523 22.1944 29.8962 22.1678 30.1365L22.1512 30.24L20.1884 40.0613L19.9637 41.1843L20.744 40.3464L36.6053 23.3386L36.9364 22.9832L36.4813 22.8123L26.5819 19.1003H26.5829C26.3228 19.0015 26.106 18.8137 25.9716 18.5701C25.8371 18.3265 25.7936 18.043 25.8485 17.7703V17.7693L27.8094 7.948L28.0341 6.8269L27.2538 7.66284Z" fill="#3B5941" stroke="white" stroke-width="0.65"/>
</svg>
