<svg width="48" height="48" viewBox="0 0 48 48" fill="none" xmlns="http://www.w3.org/2000/svg">
<path d="M42.0842 3.85986C42.3124 3.69893 42.5832 3.64159 42.7717 3.77393V3.7749L42.7834 3.78076C42.9318 3.85925 43.0375 3.95505 43.1067 4.06494C43.1757 4.17445 43.2121 4.30398 43.2122 4.45752V4.4585C43.2923 10.3111 42.4101 15.9942 40.5667 21.5073C38.9594 26.0996 37.2803 31.3422 32.4856 35.5708C30.8846 36.9262 27.5263 39.4633 22.8118 40.478C21.926 40.6485 20.3304 40.9858 18.5764 40.9858C16.7454 40.9858 14.6798 40.5646 12.8538 39.3901C12.8388 39.3761 12.8193 39.3596 12.7981 39.3423C12.7685 39.3181 12.7303 39.2868 12.6848 39.2505C12.5933 39.1776 12.471 39.0798 12.3264 38.9585C12.0374 38.7159 11.659 38.3787 11.261 37.9575L11.1809 37.8735L11.1096 37.9644C9.50526 40.0017 7.82074 42.0393 6.05591 44.0767C5.98138 44.1555 5.91078 44.21 5.83521 44.2456C5.76018 44.2809 5.6745 44.3002 5.56665 44.3003C5.43552 44.3003 5.2178 44.2271 4.98853 44.0669C4.71217 43.7656 4.71438 43.3222 4.99634 43.0239L4.99829 43.0229C6.84726 40.9812 8.61578 38.8541 10.2239 36.7271L10.2747 36.6597L10.217 36.5981C10.1889 36.5684 10.1737 36.5392 10.1536 36.4966C10.1352 36.4577 10.1108 36.4086 10.0667 36.3579H10.0676C8.43607 33.7891 7.8956 30.5615 8.11548 27.3569C8.33534 24.1527 9.31445 20.9798 10.7122 18.5288C11.3526 17.4277 13.7505 13.6258 18.0598 11.4302H18.0608C20.933 9.91054 24.0458 9.4867 29.1907 8.80615H29.1926C29.7515 8.72167 30.1906 8.67875 30.551 8.64697C30.9037 8.61588 31.1873 8.5933 31.4309 8.55127C31.9188 8.5507 32.2566 8.46447 32.885 8.38135L32.8928 8.37939C36.1197 7.69636 39.2638 6.16085 42.0842 3.85986ZM41.6477 6.07568C39.173 7.82152 36.4876 9.04647 33.8557 9.75049L33.3303 9.88428C32.6125 10.053 32.3053 10.0507 31.7327 10.1372L31.7297 10.1382C31.4943 10.1797 31.2187 10.2008 30.8547 10.2329C30.6737 10.2489 30.4722 10.2671 30.2454 10.2925L29.4856 10.3921C24.511 11.0713 21.5209 11.4982 18.7727 12.8667L18.7717 12.8677C14.8126 14.9196 12.6321 18.3367 12.0647 19.3657C10.8128 21.5878 9.90449 24.4274 9.66235 27.2886C9.42027 30.1491 9.84313 33.0406 11.2629 35.3589L11.3411 35.4858L11.429 35.3657C11.9909 34.6011 12.5547 33.8341 13.1184 32.9819C13.6829 32.1286 14.1618 31.3692 14.5637 30.7739L14.5803 30.7485V21.4546C14.5803 21.2207 14.6545 21.0339 14.7747 20.9067C14.8942 20.7803 15.0673 20.7047 15.2834 20.7046C15.4998 20.7046 15.6735 20.7802 15.7932 20.9067C15.9134 21.0339 15.9866 21.2207 15.9866 21.4546V28.5142L16.1711 28.2212C16.9705 26.9523 17.6061 26.1124 18.8792 25.1021L18.8811 25.1011C19.5967 24.5122 20.3129 24.0908 20.9524 23.7524L21.0051 23.7241V18.0552C21.0051 17.8213 21.0793 17.6345 21.1995 17.5073C21.3191 17.381 21.4922 17.3052 21.7083 17.3052C21.9246 17.3052 22.0984 17.3808 22.218 17.5073C22.3382 17.6345 22.4114 17.8213 22.4114 18.0552V23.1313L22.5481 23.0767C23.1863 22.8235 23.7456 22.6548 24.3079 22.4849L24.3069 22.4839C25.2752 22.2275 26.2448 21.887 27.2942 21.3745L27.3655 21.3394L27.3469 21.2612L25.8215 14.8872H25.8225L25.8176 14.8755L25.7971 14.8071C25.7594 14.6465 25.7946 14.4726 25.8811 14.3228C25.9804 14.151 26.1396 14.0242 26.3069 13.9888L26.3167 13.9868L26.3254 13.9829C26.4885 13.9139 26.6742 13.9458 26.8342 14.0493C26.9947 14.1531 27.1171 14.322 27.1516 14.5044L27.1526 14.5083L28.5178 20.3726L28.5598 20.5532L28.6877 20.4185C28.758 20.3441 28.8481 20.2862 28.9504 20.2212C29.0451 20.1611 29.1512 20.0935 29.2395 20.0034C31.0992 18.5488 32.6325 16.5829 33.842 14.2798C34.0608 13.894 34.4823 13.7574 34.8254 13.9751C35.187 14.2047 35.3254 14.6582 35.1135 15.0317L35.1116 15.0356C33.9934 17.233 32.5556 19.0083 30.8772 20.5308L30.6848 20.7046H36.0842C36.3006 20.7046 36.4743 20.7801 36.594 20.9067C36.7141 21.0339 36.7874 21.2208 36.7874 21.4546C36.7873 21.6881 36.7139 21.8743 36.594 22.0015C36.4743 22.1281 36.3006 22.2046 36.0842 22.2046H28.6663L28.6409 22.2202C27.2142 23.1428 25.9484 23.4795 24.6633 23.9038H24.5999L24.5686 24.0991L29.7864 25.7974V25.7983C30.2187 25.9508 30.4255 26.4019 30.2893 26.769C30.1388 27.0844 29.8485 27.303 29.5793 27.3032H29.3547L21.9807 24.8442L21.9436 24.8315L21.9065 24.8481C21.2711 25.147 20.5703 25.5134 19.8606 26.061L19.5559 26.3071C18.177 27.4233 17.7654 28.2039 16.5637 30.0688C16.5202 30.1188 16.4784 30.1844 16.4436 30.2397C16.4017 30.3062 16.3671 30.3602 16.3352 30.394L16.2366 30.4985L16.3694 30.5552L23.4368 33.5298L23.4417 33.5317C23.8607 33.6795 24.0082 34.1236 23.8635 34.5063L23.9573 34.5415L23.8625 34.5063L23.8596 34.519C23.7933 34.7994 23.526 34.9516 23.2346 34.9517C23.1735 34.9517 23.1269 34.9364 23.0823 34.9175C23.0626 34.9091 23.0336 34.8951 23.01 34.8862C22.9906 34.879 22.9668 34.8729 22.9407 34.8696L15.5637 31.73L15.4875 31.6978L15.4417 31.7661C15.2421 32.0617 15.0231 32.3572 14.7913 32.6772C14.5607 32.9954 14.3193 33.3365 14.0774 33.7202C13.4347 34.6552 12.7933 35.5878 12.0725 36.52L12.0256 36.5815L12.0725 36.6431C12.4392 37.1173 12.8065 37.462 13.0823 37.689C13.2202 37.8024 13.3351 37.887 13.4163 37.9429C13.4567 37.9707 13.4888 37.9913 13.511 38.0054C13.5221 38.0124 13.5314 38.0183 13.5374 38.022C13.5401 38.0236 13.5427 38.025 13.5442 38.0259L13.5461 38.0269L13.842 38.2173C15.358 39.138 17.0617 39.4001 18.5969 39.3901C20.2345 39.3794 21.69 39.0588 22.5315 38.8892H22.5325C26.9721 37.9495 30.119 35.5586 31.5715 34.2778C36.0918 30.3487 37.7055 25.4791 39.2307 20.8921C40.8405 16.2072 41.645 11.2681 41.8059 6.16064L41.8118 5.95947L41.6477 6.07568Z" fill="#3B5941" stroke="white" stroke-width="0.2"/>
</svg>
