<svg width="48" height="48" viewBox="0 0 48 48" fill="none" xmlns="http://www.w3.org/2000/svg">
<path fill-rule="evenodd" clip-rule="evenodd" d="M37.5 6C35.7361 6.00187 34.0012 6.44845 32.4556 7.29845C30.9101 8.14844 29.6037 9.37442 28.6575 10.863C24.5265 11.3025 21.0045 14.0535 19.4655 17.979C19.041 17.916 18.6195 17.838 18.1905 17.8365H18.1875C13.8735 17.8365 10.3305 21.0165 9.5595 25.218C8.955 25.065 8.3535 24.8895 7.7295 24.888H7.725C3.465 24.891 0 28.4025 0 32.6985C0 36.9945 3.4635 40.4985 7.725 40.5C7.899 40.5 8.0295 40.482 8.136 40.476C8.046 40.476 8.0715 40.5 8.3055 40.5H39.6945C40.3665 40.5 40.9845 40.35 41.5485 40.146C45.363 39.0465 47.997 35.526 48 31.524C47.9988 30.1361 47.6763 28.7674 47.0577 27.525C46.4391 26.2827 45.5413 25.2004 44.4345 24.363C45.5537 23.3812 46.4506 22.172 47.0655 20.8161C47.6803 19.4602 47.9989 17.9888 48 16.5C48 10.71 43.29 6 37.5 6ZM37.5 7.5C42.48 7.5 46.5 11.52 46.5 16.5C46.5 21.48 42.48 25.5 37.5 25.5C32.52 25.5 28.5 21.48 28.5 16.5C28.5 11.52 32.52 7.5 37.5 7.5ZM37.998 10.3005C37.8062 10.3101 37.6253 10.3929 37.4928 10.5319C37.3602 10.6709 37.286 10.8554 37.2855 11.0475L37.2825 11.7915C36.2645 11.8314 35.2782 12.1562 34.4357 12.729C33.5932 13.3018 32.9284 14.0995 32.517 15.0315C32.0798 16.0266 31.9484 17.1292 32.1394 18.1991C32.3303 19.2691 32.8351 20.2581 33.5895 21.0405C34.3428 21.8212 35.3124 22.3587 36.3736 22.5837C37.4349 22.8088 38.5392 22.7112 39.5445 22.3035C40.5505 21.8924 41.4112 21.1911 42.0171 20.289C42.623 19.3868 42.9465 18.3247 42.9465 17.238C42.9465 17.0391 42.8675 16.8483 42.7268 16.7077C42.5862 16.567 42.3954 16.488 42.1965 16.488C41.9976 16.488 41.8068 16.567 41.6662 16.7077C41.5255 16.8483 41.4465 17.0391 41.4465 17.238C41.4465 18.858 40.4715 20.3085 38.979 20.9145C38.2513 21.2114 37.4513 21.2831 36.6824 21.1202C35.9136 20.9574 35.2113 20.5675 34.6665 20.001C34.1187 19.4325 33.7524 18.7139 33.6143 17.9365C33.4762 17.1592 33.5725 16.3584 33.891 15.636C34.1834 14.9693 34.6552 14.3968 35.2537 13.9824C35.8522 13.5679 36.554 13.3277 37.281 13.2885L37.278 13.995C37.2775 14.1479 37.3238 14.2974 37.4106 14.4232C37.4975 14.5491 37.6207 14.6454 37.7639 14.6993C37.907 14.7532 38.0632 14.762 38.2115 14.7246C38.3597 14.6872 38.493 14.6053 38.5935 14.49L39.8835 13.011C40.0021 12.8745 40.0674 12.6998 40.0674 12.519C40.0674 12.3382 40.0021 12.1635 39.8835 12.027L38.598 10.557C38.5236 10.4721 38.431 10.405 38.3272 10.3609C38.2233 10.3167 38.1108 10.2951 37.998 10.3005ZM27.7905 12.513C27.2683 13.7774 26.9997 15.132 27 16.5C27 22.29 31.71 27 37.5 27C39.6 27 41.553 26.3745 43.1955 25.3095C44.2136 25.9958 45.0474 26.9217 45.6236 28.0059C46.1998 29.0901 46.5008 30.2992 46.5 31.527C46.4955 34.878 44.298 37.8075 41.118 38.7165C41.1003 38.7214 41.0828 38.7269 41.0655 38.733C40.6065 38.9025 40.1565 39.003 39.6945 39.003H8.3055C8.4345 39.003 8.3745 38.979 8.121 38.979C8.10351 38.9784 8.08599 38.9784 8.0685 38.979C7.95439 38.9913 7.83976 38.9983 7.725 39C4.284 39 1.5 36.1935 1.5 32.6985C1.5 29.2035 4.281 26.3955 7.722 26.394C8.442 26.394 9.1515 26.526 9.8265 26.775C9.93459 26.8151 10.0505 26.8298 10.1652 26.8179C10.2798 26.8059 10.3902 26.7677 10.4877 26.7062C10.5852 26.6447 10.6672 26.5615 10.7274 26.4631C10.7875 26.3647 10.8242 26.2538 10.8345 26.139C11.1825 22.2795 14.3655 19.344 18.1845 19.3425C18.705 19.3425 19.2255 19.401 19.734 19.512C19.9153 19.5518 20.105 19.5229 20.2663 19.4309C20.4275 19.3389 20.5489 19.1903 20.607 19.014C21.1337 17.3979 22.0739 15.9477 23.3343 14.8073C24.5947 13.6669 26.13 12.8759 27.7905 12.513Z" fill="#3B5941"/>
</svg>
