<svg width="48" height="48" viewBox="0 0 48 48" fill="none" xmlns="http://www.w3.org/2000/svg">
<path d="M38.1219 20.25H24.8974V16.7908C26.0646 17.1012 27.2656 17.259 28.4718 17.2602C29.8506 17.301 31.2234 17.059 32.5089 16.5488C33.7945 16.0385 34.9668 15.2703 35.9565 14.2895C40.5204 9.63131 38.3759 2.84689 38.2819 2.56054C38.2462 2.45001 38.1855 2.34957 38.1049 2.26727C38.0243 2.18497 37.9259 2.1231 37.8176 2.08661C37.5364 1.99069 30.8912 -0.198485 26.3281 4.46044C25.3786 5.42953 24.6406 6.59265 24.1627 7.87346C23.6847 6.59265 22.9468 5.42953 21.9973 4.46044C17.4348 -0.199235 10.789 1.99069 10.5078 2.08661C10.3995 2.1231 10.3011 2.18497 10.2204 2.26727C10.1398 2.34957 10.0792 2.45001 10.0435 2.56054C9.94949 2.84689 7.80504 9.63131 12.3689 14.2895C13.3585 15.2705 14.5307 16.0389 15.8164 16.5491C17.102 17.0594 18.4748 17.3012 19.8536 17.2602C21.0597 17.259 22.2608 17.1012 23.428 16.7908V20.25H10.2035C9.81401 20.2505 9.44053 20.4087 9.16508 20.6899C8.88963 20.9711 8.73465 21.3523 8.73413 21.75V24.75C8.73465 25.1476 8.88963 25.5288 9.16508 25.81C9.44053 26.0912 9.81401 26.2494 10.2035 26.25H10.256L11.5237 43.7219C11.5813 44.476 11.9147 45.1804 12.4577 45.6951C13.0007 46.2098 13.7136 46.4971 14.4545 46.5H33.8708C34.6119 46.4971 35.3246 46.2098 35.8676 45.6951C36.4106 45.1804 36.7441 44.476 36.8017 43.7219L38.0694 26.25H38.1219C38.5115 26.2494 38.8849 26.0912 39.1603 25.81C39.4358 25.5288 39.5908 25.1476 39.5913 24.75V21.75C39.5908 21.3523 39.4358 20.9711 39.1603 20.6899C38.8849 20.4087 38.5115 20.2505 38.1219 20.25ZM27.3669 5.52094C30.7245 2.09344 35.6279 3.05126 36.9914 3.40594C37.3415 4.79681 38.2879 9.78971 34.9179 13.2292C32.0712 16.1358 28.122 15.888 26.1523 15.53L31.6618 9.90521C31.7956 9.76376 31.8696 9.57431 31.868 9.37766C31.8663 9.18102 31.789 8.99291 31.6527 8.85385C31.5166 8.71479 31.3323 8.63592 31.1396 8.63421C30.947 8.6325 30.7614 8.7081 30.6229 8.84471L25.1104 14.4719C24.9721 13.6856 24.9032 12.8882 24.9042 12.0893C24.9042 12.0191 24.9042 11.9499 24.9032 11.8785C24.8755 9.51145 25.7605 7.22813 27.3669 5.52094ZM23.2124 14.4693L17.7026 8.84434C17.564 8.70772 17.3784 8.63213 17.1857 8.63383C16.9931 8.63554 16.8089 8.71442 16.6726 8.85348C16.5364 8.99253 16.4592 9.18064 16.4575 9.37729C16.4558 9.57394 16.5298 9.76339 16.6637 9.90484L22.1757 15.5325C20.2096 15.894 16.2657 16.1468 13.4077 13.2293C10.0502 9.80179 10.9884 4.79689 11.3359 3.40429C12.6991 3.04759 17.5887 2.08076 20.9587 5.52094C23.8052 8.42711 23.5634 12.4587 23.2124 14.4693ZM35.3367 43.6106C35.3079 43.9878 35.1412 44.3401 34.8695 44.5975C34.598 44.8549 34.2415 44.9986 33.8708 45H14.4545C14.084 44.9986 13.7274 44.8549 13.4558 44.5975C13.1842 44.3401 13.0175 43.9878 12.9888 43.6106L11.7295 26.25H36.5959L35.3367 43.6106ZM37.3872 24.75H10.2035V21.75H38.1219L38.1233 24.75H37.3872Z" fill="#3B5941"/>
</svg>
