<svg width="179" height="35" viewBox="0 0 179 35" fill="none" xmlns="http://www.w3.org/2000/svg">
<g clip-path="url(#clip0_5_394)">
<path d="M179 26.6133H173.964C173.868 25.9574 173.796 25.4303 173.712 24.7743C173.34 24.9617 173.052 25.0554 172.836 25.2429C169.443 28.0424 164.634 27.4801 162.056 23.9426C159.849 20.9323 159.825 15.2278 161.996 12.2291C164.634 8.59794 169.862 8.05912 172.92 10.9055C173.088 11.0695 173.316 11.1749 173.772 11.456V3.76025H179.012V26.625L179 26.6133ZM173.808 18.0156C173.796 15.3215 171.601 13.2833 169.155 13.6933C167.308 13.9979 165.917 15.6963 165.821 17.7345C165.713 20.0186 166.912 21.8694 168.819 22.3496C171.445 23.0056 173.832 20.9323 173.808 18.0156Z" fill="#3B5941"/>
<path d="M84.6134 9.53492V26.6601H79.4689C79.397 26.0393 79.337 25.4653 79.2531 24.7039C78.8813 24.9382 78.6295 25.0553 78.4257 25.2427C74.9601 28.3468 69.0721 27.234 67.0815 23.0757C65.7265 20.2528 65.5466 17.3361 66.5179 14.3492C68.0768 9.47635 74.3845 7.16878 78.5456 10.964C78.7255 11.128 78.9413 11.2568 79.349 11.5731C79.397 10.8 79.445 10.2377 79.4929 9.53492H84.6254H84.6134ZM79.337 18.0272C79.337 15.38 77.2864 13.377 74.8761 13.6698C73.0054 13.8923 71.5184 15.544 71.3626 17.5704C71.1947 19.8077 72.3699 21.7873 74.1806 22.3027C76.9147 23.0757 79.337 21.0727 79.337 18.0272Z" fill="#3B5941"/>
<path d="M120.912 26.66V4.99004C121.368 4.9549 121.872 4.8729 122.363 4.8729C124.953 4.86119 127.556 4.84947 130.146 4.8729C130.817 4.8729 131.501 4.93147 132.148 5.07203C135.71 5.79827 137.737 8.09412 137.88 11.491C138.024 14.9934 136.166 17.5235 132.652 18.4606C131.669 18.73 130.614 18.7768 129.582 18.8354C128.551 18.894 127.52 18.8471 126.308 18.8471C125.889 21.4592 126.344 24.0479 126.021 26.6483H120.924L120.912 26.66ZM126.261 14.6888C127.568 14.6888 128.755 14.7825 129.93 14.6654C131.609 14.4897 132.484 13.4003 132.46 11.7605C132.436 10.2494 131.513 9.24204 129.858 9.1132C128.707 9.01949 127.532 9.08977 126.273 9.08977V14.6888H126.261Z" fill="#3B5941"/>
<path d="M112.866 9.34749C114.077 9.34749 115.264 9.33578 116.451 9.34749C117.111 9.34749 117.77 9.41777 118.61 9.46463C114.868 18.0389 111.187 26.4609 107.458 35.0001H101.833C102.409 33.6648 102.961 32.3411 103.536 31.0292C104.076 29.8227 104.64 28.6279 105.215 27.4332C105.623 26.6015 105.599 25.8401 105.215 24.9616C103.249 20.487 101.342 15.9891 99.4232 11.5028C99.1713 10.9054 98.9435 10.2963 98.6317 9.51148H104.532C105.815 12.8967 107.134 16.3756 108.453 19.8545L108.885 19.8897C110.18 16.4693 111.475 13.049 112.878 9.34749H112.866Z" fill="#3B5941"/>
<path d="M149.285 9.12502C154.729 9.13674 158.35 12.7914 158.338 18.2381C158.338 23.3218 154.405 26.9999 149.009 26.9881C143.505 26.9881 139.823 23.3804 139.835 18.0039C139.835 12.6391 143.612 9.1016 149.297 9.11331L149.285 9.12502ZM152.918 17.8282C152.834 17.4182 152.81 16.6802 152.534 16.0477C151.959 14.7241 150.999 13.7519 149.416 13.6464C147.822 13.541 146.479 14.1267 145.855 15.5675C145.447 16.5045 145.303 17.6173 145.315 18.6598C145.351 20.7917 146.97 22.4199 148.949 22.5136C150.784 22.6073 152.486 21.0728 152.822 19.0347C152.87 18.7301 152.87 18.4256 152.918 17.8282Z" fill="#3B5941"/>
<path d="M57.8599 21.1898H63.4001C62.6806 23.755 61.0617 25.3481 58.7833 26.3086C56.229 27.3862 53.6028 27.2574 51.0486 26.25C48.8661 25.3832 47.3912 23.7667 46.6477 21.588C45.9641 19.585 45.8562 17.4883 46.3719 15.4384C47.5111 10.8819 51.972 8.31659 56.9725 9.26539C61.7572 10.179 64.3714 13.8688 63.7598 19.2102H51.5283C51.4803 20.9789 52.1519 22.0097 53.5069 22.5602C55.1498 23.2279 56.217 22.8999 57.8719 21.1898H57.8599ZM58.3276 16.3989C58.1477 14.2671 56.9126 13.2363 54.802 13.3066C52.8594 13.3651 51.6002 14.5599 51.6002 16.3989H58.3396H58.3276Z" fill="#3B5941"/>
<path d="M89.3981 13.8923C88.6546 13.7634 88.1509 13.6814 87.5273 13.576V9.58169C87.995 9.49969 88.5346 9.40599 89.2542 9.27714C89.494 7.03985 89.7818 4.72058 92.0122 3.36181C93.6671 2.35445 95.5138 2.26074 97.4924 2.24902V6.48932C95.19 7.01643 94.9862 7.20384 94.7703 9.19514C95.6457 9.31228 96.5331 9.42941 97.5404 9.56997V13.5526C96.701 13.6229 95.8616 13.7048 94.8063 13.7986V26.6366H89.3861V13.8923H89.3981Z" fill="#3B5941"/>
<path d="M31.9099 4.9082H37.0663V22.701H44.2014V26.6485H31.9099V4.9082Z" fill="#3B5941"/>
<path d="M24.0194 21.6817C22.8202 21.26 22.3046 22.0331 21.741 22.6188C19.0668 25.3363 17.8197 25.3598 15.0856 22.7477C14.8098 22.4782 14.51 22.2205 14.1982 21.9863C14.0543 21.8691 13.8624 21.8106 13.4547 21.5997C12.9391 22.0097 12.3155 22.4314 11.7879 22.9585C8.96981 25.8283 5.18043 25.0435 3.95728 21.2835C3.65749 20.3815 3.5016 19.4093 3.46562 18.4605C3.36969 16.0944 3.44164 13.7165 3.33371 11.3504C3.04591 5.07195 7.30296 1.40562 12.3155 0.421684C15.5532 -0.210846 18.803 -0.117138 22.0527 0.620814C22.9281 4.43942 22.9281 8.09404 21.5011 11.6667C19.6424 16.2935 15.6132 18.9525 11.0564 18.6245C7.41089 18.3668 5.92392 15.5673 7.84259 12.51C9.7013 9.56994 12.1356 7.1921 15.2894 5.56392C15.8051 5.30622 16.4286 5.25937 17.0042 5.11881C17.1122 5.29451 17.2321 5.47021 17.34 5.64591C16.8364 6.12617 16.3807 6.65328 15.841 7.09839C14.1023 8.53915 12.2915 9.92135 10.6007 11.4207C9.94114 12.0064 9.43749 12.8146 9.00579 13.5994C7.93852 15.5438 8.65803 16.844 10.9484 17.0315C14.0543 17.2774 16.6085 16.1529 18.5032 13.7282C20.3379 11.3973 20.9855 8.67972 20.9615 5.78648C20.9495 4.57998 20.9615 3.3852 20.9615 2.33099C16.7045 0.456825 9.29359 2.07329 6.72736 5.36479C5.97189 6.34873 5.26438 7.64893 5.21641 8.82028C5.07251 12.5803 5.24039 16.3638 5.33633 20.1238C5.34832 20.6158 5.56417 21.1312 5.78002 21.588C6.55948 23.2396 8.41819 23.6613 9.85719 22.5368C10.205 22.2557 10.4928 21.8926 10.8165 21.5763C12.5433 19.8076 14.5579 19.7841 16.2967 21.5177C17.1601 22.3845 17.9036 23.4622 18.9709 23.1225C20.1581 22.0683 20.9375 21.1898 21.8969 20.5455C23.8635 19.2219 25.6982 20.1121 25.9381 22.4431C26.1779 24.7858 25.1706 26.7654 23.6956 28.417C19.8103 32.7393 14.7018 33.489 9.30558 32.3176C4.16114 31.1814 1.39106 27.5619 0.0479902 22.7945C-0.0599351 22.3962 0.0359985 21.9511 0.0359985 21.4943C1.22318 21.1195 1.23517 21.9746 1.45102 22.5954C2.26645 25.0318 3.77741 26.9997 5.70807 28.7098C9.67732 32.2239 19.1867 32.7159 23.4798 25.8986C24.4511 24.3641 24.559 23.3685 24.0074 21.67L24.0194 21.6817Z" fill="#3B5941"/>
</g>
<defs>
<clipPath id="clip0_5_394">
<rect width="179" height="35" fill="white"/>
</clipPath>
</defs>
</svg>
