<svg width="48" height="48" viewBox="0 0 48 48" fill="none" xmlns="http://www.w3.org/2000/svg">
<g clip-path="url(#clip0_33_62)">
<path d="M48 24C48 10.7452 37.2548 0 24 0C10.7452 0 0 10.7452 0 24C0 37.2548 10.7452 48 24 48C37.2548 48 48 37.2548 48 24Z" fill="#3A5A40"/>
<path fill-rule="evenodd" clip-rule="evenodd" d="M25.0964 16.112C25.0964 16.6589 24.6406 17.1276 24.0937 17.1276C23.5339 17.1276 23.0781 16.6589 23.0781 16.112V14.0026C23.0781 13.4557 23.5339 13 24.0937 13C24.6406 13 25.0964 13.4557 25.0964 14.0026V16.112ZM30.4609 19.1849C30.0573 19.5885 29.4063 19.5755 29.0156 19.1849C28.638 18.7943 28.638 18.1563 29.0156 17.7656L30.526 16.2552C30.9167 15.8646 31.5677 15.8646 31.9584 16.2552C32.336 16.6458 32.336 17.3099 31.9584 17.7005L30.4609 19.1849ZM32.0755 25.1354C31.5287 25.1354 31.0599 24.6667 31.0599 24.1198C31.0599 23.5729 31.5287 23.1042 32.0755 23.1042H34.1588C34.7188 23.1042 35.1745 23.5729 35.1745 24.1198C35.1745 24.6667 34.7188 25.1354 34.1588 25.1354H32.0755ZM29.0156 30.4869C28.638 30.0964 28.638 29.4584 29.0156 29.0677C29.4063 28.6771 30.0573 28.6771 30.4479 29.0677L31.9584 30.5521C32.336 30.9427 32.336 31.5937 31.9584 31.9844C31.5677 32.3749 30.9167 32.388 30.526 31.9973L29.0156 30.4869ZM23.0781 32.1276C23.0781 31.5807 23.5339 31.112 24.0937 31.112C24.6406 31.112 25.0964 31.5807 25.0964 32.1276V34.2369C25.0964 34.7839 24.6406 35.2396 24.0937 35.2396C23.5339 35.2396 23.0781 34.7839 23.0781 34.2369V32.1276ZM17.7135 29.0677C18.1042 28.6771 18.7682 28.6771 19.1589 29.0677C19.5365 29.4584 19.5365 30.0964 19.1458 30.4869L17.6484 31.9844C17.2578 32.3749 16.6068 32.362 16.2161 31.9713C15.8385 31.5807 15.8385 30.9297 16.2292 30.5391L17.7135 29.0677ZM16.099 23.1042C16.6589 23.1042 17.1146 23.5729 17.1146 24.1198C17.1146 24.6667 16.6589 25.1354 16.099 25.1354H14.0156C13.4557 25.1354 13 24.6667 13 24.1198C13 23.5729 13.4557 23.1042 14.0156 23.1042H16.099ZM19.1589 17.7656C19.5365 18.1432 19.5365 18.8073 19.1458 19.1849C18.7552 19.5755 18.1042 19.5755 17.7135 19.1849L16.2292 17.6875C15.8516 17.3099 15.8516 16.6458 16.2422 16.2552C16.6198 15.8646 17.2839 15.8776 17.6615 16.2552L19.1589 17.7656ZM29.3932 24.1197C29.3932 27.0364 26.9844 29.4322 24.0937 29.4322C21.1901 29.4322 18.7812 27.0364 18.7812 24.1197C18.7812 21.2031 21.1901 18.8073 24.0937 18.8073C26.9844 18.8073 29.3932 21.2031 29.3932 24.1197Z" fill="white"/>
</g>
<defs>
<clipPath id="clip0_33_62">
<rect width="48" height="48" fill="white"/>
</clipPath>
</defs>
</svg>
