<svg width="48" height="48" viewBox="0 0 48 48" fill="none" xmlns="http://www.w3.org/2000/svg">
<g clip-path="url(#clip0_33_53)">
<path d="M48 24C48 10.7452 37.2548 0 24 0C10.7452 0 0 10.7452 0 24C0 37.2548 10.7452 48 24 48C37.2548 48 48 37.2548 48 24Z" fill="#3A5A40"/>
<path fill-rule="evenodd" clip-rule="evenodd" d="M23.1097 18.7471C21.363 19.7286 19.5825 20.7292 17.2273 20.7292C15.9253 20.7292 14.7013 20.4036 13.5555 19.7396C12.9174 19.375 12.8914 18.737 13.1648 18.3203C13.3992 17.9557 13.881 17.7604 14.3628 18.0469C15.4044 18.6458 16.2768 18.8542 17.2273 18.8542C19.3175 18.8542 20.9586 17.931 22.6345 16.9883C24.3828 16.0048 26.169 15 28.5424 15C29.8445 15 31.0555 15.3255 32.2013 15.9896C32.8653 16.3802 32.8915 17.0182 32.6049 17.4219C32.3576 17.7734 31.8888 17.9687 31.4071 17.6823C30.3653 17.0833 29.4929 16.875 28.5424 16.875C26.4412 16.875 24.7911 17.8022 23.1097 18.7471ZM27.0018 22.5158L28.0852 20.4822C25.9434 20.6043 24.2801 21.5399 22.6497 22.4571C20.9739 23.3998 19.3328 24.3229 17.2426 24.3229C16.2921 24.3229 15.4197 24.1146 14.378 23.5157C13.8832 23.2292 13.4145 23.4245 13.1801 23.7891C12.9067 24.2058 12.9197 24.8438 13.5707 25.2084C14.7166 25.8724 15.9405 26.1979 17.2426 26.1979C19.5977 26.1979 21.3783 25.1974 23.1249 24.2159C24.3692 23.5167 25.5963 22.8271 27.0018 22.5158ZM24.9968 26.7087C24.8119 27.3113 24.6875 27.9559 24.6875 28.6199C24.6875 28.6909 24.6888 28.7616 24.6913 28.832C24.1573 29.096 23.635 29.3895 23.1097 29.6847C21.363 30.6662 19.5825 31.6667 17.2273 31.6667C15.9253 31.6667 14.7013 31.3413 13.5555 30.6771C12.9174 30.3126 12.8914 29.6746 13.1648 29.2579C13.3992 28.8933 13.881 28.6979 14.3628 28.9845C15.4044 29.5834 16.2768 29.7918 17.2273 29.7918C19.3175 29.7918 20.9586 28.8686 22.6345 27.9259C23.3993 27.4956 24.1714 27.0612 24.9968 26.7087ZM35.0872 28.6199C35.0872 31.0156 33.1081 32.9557 30.6341 32.9557C28.1863 32.9557 26.207 31.0156 26.207 28.6199C26.207 27.2917 26.8711 25.9896 27.418 24.9479L29.6445 20.7943C29.9049 20.2995 30.1393 20.0781 30.6341 20.0781C31.1289 20.0781 31.3633 20.2995 31.6237 20.7943L33.8633 24.9479C34.4232 25.9896 35.0872 27.2917 35.0872 28.6199Z" fill="white"/>
</g>
<defs>
<clipPath id="clip0_33_53">
<rect width="48" height="48" fill="white"/>
</clipPath>
</defs>
</svg>
