<svg width="48" height="48" viewBox="0 0 48 48" fill="none" xmlns="http://www.w3.org/2000/svg">
<g clip-path="url(#clip0_33_88)">
<path d="M48 24C48 10.7452 37.2548 0 24 0C10.7452 0 0 10.7452 0 24C0 37.2548 10.7452 48 24 48C37.2548 48 48 37.2548 48 24Z" fill="#3A5A40"/>
<path fill-rule="evenodd" clip-rule="evenodd" d="M30.0273 21.6641C30.0273 24.5027 27.7486 26.7943 24.9102 26.7943C24.8237 26.7943 24.7379 26.7921 24.6526 26.7879L24.6654 18.1094C24.6654 17.5628 24.595 17.0453 24.4623 16.566C24.6098 16.5533 24.7592 16.5469 24.9102 16.5469C27.7486 16.5469 30.0273 18.8255 30.0273 21.6641ZM25.8867 14.0078C25.8867 14.5417 25.457 14.9844 24.9102 14.9844C24.3763 14.9844 23.9336 14.5417 23.9336 14.0078V11.9766C23.9336 11.4427 24.3763 11 24.9102 11C25.457 11 25.8867 11.4427 25.8867 11.9766V14.0078ZM31.0169 16.9505C30.6264 17.3411 29.9882 17.3281 29.6237 16.9505C29.2721 16.5859 29.2592 15.9609 29.6237 15.5964L31.082 14.138C31.4597 13.7604 32.0716 13.7604 32.4492 14.138C32.8268 14.5156 32.8268 15.1406 32.4492 15.5052L31.0169 16.9505ZM32.5404 22.6406C32.0196 22.6406 31.5638 22.2109 31.5638 21.6641C31.5638 21.1302 32.0196 20.6875 32.5404 20.6875H34.5716C35.1054 20.6875 35.5352 21.1302 35.5352 21.6641C35.5352 22.2109 35.1054 22.6406 34.5716 22.6406H32.5404ZM29.6237 27.7708C29.2592 27.3932 29.2592 26.7683 29.6237 26.3907C30.0013 26.026 30.6133 26.026 30.9909 26.3907L32.4492 27.836C32.8268 28.2005 32.8268 28.8255 32.4492 29.2031C32.0716 29.5807 31.4597 29.5937 31.082 29.2161L29.6237 27.7708ZM20.0482 37.1979C23.043 37.1979 25.4779 34.776 25.4779 31.7683C25.4779 30.2057 24.8268 28.8125 23.6159 27.6927C23.4075 27.4973 23.3685 27.3932 23.3685 27.1197L23.3815 18.1094C23.3815 15.9479 22.0273 14.4766 20.0482 14.4766C18.056 14.4766 16.7018 15.9479 16.7018 18.1094V27.1197C16.7018 27.3932 16.6628 27.4973 16.4675 27.6927C15.2565 28.8125 14.6055 30.2057 14.6055 31.7683C14.6055 34.776 17.0404 37.1979 20.0482 37.1979ZM20.0482 35.5183C17.9779 35.5183 16.3112 33.8255 16.3112 31.7683C16.3112 30.5052 16.9232 29.3593 17.9909 28.6563C18.2904 28.4609 18.4075 28.2917 18.4075 27.888V18.1875C18.4075 16.9766 19.0716 16.1823 20.0482 16.1823C21.0117 16.1823 21.6628 16.9766 21.6628 18.1875V27.888C21.6628 28.2917 21.793 28.4609 22.0925 28.6563C23.1471 29.3593 23.7721 30.5052 23.7721 31.7683C23.7721 33.8255 22.1055 35.5183 20.0482 35.5183ZM22.418 31.7552C22.418 33.0703 21.3633 34.138 20.0482 34.138C18.7461 34.138 17.6914 33.0703 17.6914 31.7552C17.6914 30.8438 18.1992 30.0886 18.9544 29.685C19.2799 29.5156 19.3841 29.3855 19.3841 28.9167V18.9948C19.3841 18.5 19.6836 18.2006 20.0482 18.2006C20.4258 18.2006 20.7253 18.5 20.7253 18.9948V28.9167C20.7253 29.3855 20.8294 29.5156 21.155 29.685C21.8971 30.0886 22.418 30.8438 22.418 31.7552Z" fill="white"/>
</g>
<defs>
<clipPath id="clip0_33_88">
<rect width="48" height="48" fill="white"/>
</clipPath>
</defs>
</svg>
