<svg width="48" height="48" viewBox="0 0 48 48" fill="none" xmlns="http://www.w3.org/2000/svg">
<g clip-path="url(#clip0_33_46)">
<path d="M48 24C48 10.7452 37.2548 0 24 0C10.7452 0 0 10.7452 0 24C0 37.2548 10.7452 48 24 48C37.2548 48 48 37.2548 48 24Z" fill="#3A5A40"/>
<path fill-rule="evenodd" clip-rule="evenodd" d="M31.5677 34.1071H15.9166C14.1067 34.1071 13 32.8441 13 31.1905C13 30.7086 13.1302 30.2139 13.4036 29.7451L21.2421 16.1384C21.789 15.1748 22.7526 14.667 23.7421 14.667C24.7317 14.667 25.6823 15.1748 26.2421 16.1384L34.0806 29.7451C34.3412 30.2009 34.4844 30.7086 34.4844 31.1905C34.4844 32.8441 33.3776 34.1071 31.5677 34.1071ZM20.75 27.3492C20.75 29.081 21.9479 30.253 23.7447 30.253C25.5286 30.253 26.7395 29.081 26.7395 27.3492C26.7395 26.4837 26.3787 25.7426 26.1436 25.2597C26.1382 25.2486 26.1328 25.2377 26.1276 25.2268C25.6718 24.1982 24.8515 22.8961 24.1875 21.8675C24.0703 21.6591 23.927 21.568 23.7447 21.568C23.5625 21.568 23.4192 21.6591 23.289 21.8675C22.625 22.8961 21.8177 24.1982 21.3489 25.2268C21.1145 25.7086 20.75 26.4638 20.75 27.3492Z" fill="white"/>
</g>
<defs>
<clipPath id="clip0_33_46">
<rect width="48" height="48" fill="white"/>
</clipPath>
</defs>
</svg>
