<svg width="24" height="24" viewBox="0 0 24 24" fill="none" xmlns="http://www.w3.org/2000/svg">
<g clip-path="url(#clip0_5_409)">
<path d="M23.6192 12.0003C23.6192 18.061 19.2436 23.0713 13.5599 23.8846C13.0282 23.9606 12.4845 24 11.9327 24C11.2954 24 10.6702 23.9475 10.0605 23.8466C4.49649 22.9269 0.246094 17.9725 0.246094 11.9997C0.246094 5.37242 5.47833 0 11.9327 0C18.387 0 23.6192 5.37302 23.6192 12.0003Z" fill="white"/>
<path d="M19.3595 9.4916C19.2673 8.5712 19.0674 7.55476 18.3326 7.01994C17.7626 6.60535 17.0142 6.59015 16.3157 6.59084C14.8386 6.59222 13.3614 6.59361 11.8843 6.59499C10.4637 6.59637 9.04308 6.59775 7.62247 6.59913C7.02893 6.59913 6.4522 6.55215 5.90105 6.81541C5.42729 7.04206 5.05715 7.47254 4.83508 7.9514C4.52552 8.6182 4.46025 9.37275 4.42324 10.11C4.3546 11.4519 4.362 12.798 4.44478 14.1385C4.50467 15.1176 4.65742 16.199 5.39431 16.823C6.04775 17.3757 6.9697 17.4027 7.81628 17.4034C10.5054 17.4055 13.1945 17.4075 15.8837 17.4103C16.2282 17.4103 16.5883 17.4041 16.9395 17.3647C17.6313 17.288 18.2902 17.0848 18.7343 16.559C19.1825 16.029 19.2976 15.2904 19.3662 14.5918C19.5318 12.8975 19.5297 11.1852 19.3595 9.4916ZM10.3291 14.3769V9.62427L14.3379 12.0006L10.3291 14.3769Z" fill="#111111"/>
</g>
<defs>
<clipPath id="clip0_5_409">
<rect width="24" height="24" fill="white"/>
</clipPath>
</defs>
</svg>
