<svg width="25" height="24" viewBox="0 0 25 24" fill="none" xmlns="http://www.w3.org/2000/svg">
<g clip-path="url(#clip0_5_408)">
<path d="M24.2461 12.0003C24.2461 18.061 19.8706 23.0713 14.1868 23.8846C13.6552 23.9606 13.1114 24 12.5596 24C11.9223 24 11.2971 23.9475 10.6874 23.8466C5.12344 22.9269 0.873047 17.9725 0.873047 11.9997C0.873047 5.37241 6.10529 0 12.5596 0C19.0139 0 24.2461 5.37301 24.2461 12.0003Z" fill="white"/>
<path d="M14.1868 9.63522V12.2492H17.3362L16.8376 15.7711H14.1868V23.8847C13.6552 23.9607 13.1114 24.0001 12.5596 24.0001C11.9223 24.0001 11.2971 23.9476 10.6874 23.8467V15.7711H7.78296V12.2492H10.6874V9.05133C10.6874 7.06682 12.2541 5.45752 14.1875 5.45752V5.45959C14.1929 5.45959 14.1982 5.45752 14.2036 5.45752H17.3369V8.50269H15.2898C14.6808 8.50269 14.1868 9.00987 14.1868 9.63522Z" fill="#111111"/>
</g>
<defs>
<clipPath id="clip0_5_408">
<rect width="25" height="24" fill="white"/>
</clipPath>
</defs>
</svg>
