<svg width="24" height="24" viewBox="0 0 24 24" fill="none" xmlns="http://www.w3.org/2000/svg">
<g clip-path="url(#clip0_5_410)">
<path d="M23.8731 12.0003C23.8731 18.061 19.4975 23.0713 13.8138 23.8846C13.2821 23.9606 12.7384 24 12.1866 24C11.5493 24 10.9241 23.9475 10.3144 23.8466C4.75039 22.9269 0.5 17.9725 0.5 11.9997C0.5 5.37241 5.73224 0 12.1866 0C18.6409 0 23.8731 5.37301 23.8731 12.0003Z" fill="white"/>
<path d="M15.846 4.79688H8.52631C6.50408 4.79688 4.85938 6.48564 4.85938 8.56205V15.4381C4.85938 17.5145 6.50408 19.2033 8.52631 19.2033H15.846C17.8683 19.2033 19.513 17.5145 19.513 15.4381V8.56205C19.513 6.48564 17.8683 4.79688 15.846 4.79688ZM6.15279 8.56205C6.15279 7.21809 7.21741 6.12495 8.52631 6.12495H15.846C17.1549 6.12495 18.2196 7.21809 18.2196 8.56205V15.4381C18.2196 16.7821 17.1549 17.8752 15.846 17.8752H8.52631C7.21741 17.8752 6.15279 16.7821 6.15279 15.4381V8.56205Z" fill="#111111"/>
<path d="M12.1861 15.5028C14.067 15.5028 15.5973 13.9315 15.5973 12.0002C15.5973 10.0689 14.067 8.49756 12.1861 8.49756C10.3052 8.49756 8.7749 10.0689 8.7749 12.0002C8.7749 13.9315 10.3052 15.5028 12.1861 15.5028ZM12.1861 9.82633C13.3537 9.82633 14.3032 10.8013 14.3032 12.0002C14.3032 13.199 13.3537 14.174 12.1861 14.174C11.0185 14.174 10.069 13.199 10.069 12.0002C10.069 10.8013 11.0185 9.82633 12.1861 9.82633Z" fill="#111111"/>
<path d="M15.9134 9.06306C16.4201 9.06306 16.8326 8.63948 16.8326 8.11917C16.8326 7.59886 16.4201 7.17529 15.9134 7.17529C15.4067 7.17529 14.9941 7.59886 14.9941 8.11917C14.9941 8.63948 15.4067 9.06306 15.9134 9.06306Z" fill="#111111"/>
</g>
<defs>
<clipPath id="clip0_5_410">
<rect width="24" height="24" fill="white"/>
</clipPath>
</defs>
</svg>
